<?xml version="1.0" encoding="UTF-8" standalone="no"?>
<svg
   xmlns:dc="http://purl.org/dc/elements/1.1/"
   xmlns:cc="http://creativecommons.org/ns#"
   xmlns:rdf="http://www.w3.org/1999/02/22-rdf-syntax-ns#"
   xmlns:svg="http://www.w3.org/2000/svg"
   xmlns="http://www.w3.org/2000/svg"
   xmlns:sodipodi="http://sodipodi.sourceforge.net/DTD/sodipodi-0.dtd"
   xmlns:inkscape="http://www.inkscape.org/namespaces/inkscape"
   width="20.5"
   height="20.5"
   viewBox="0 0 209.92 209.92"
   version="1.1"
   id="svg58"
   sodipodi:docname="linkedin.svg"
   inkscape:version="1.0.2 (e86c870879, 2021-01-15)">
  <metadata
     id="metadata64">
    <rdf:RDF>
      <cc:Work
         rdf:about="">
        <dc:format>image/svg+xml</dc:format>
        <dc:type
           rdf:resource="http://purl.org/dc/dcmitype/StillImage" />
        <dc:title></dc:title>
      </cc:Work>
    </rdf:RDF>
  </metadata>
  <defs
     id="defs62" />
  <sodipodi:namedview
     pagecolor="#ffffff"
     bordercolor="#666666"
     borderopacity="1"
     objecttolerance="10"
     gridtolerance="10"
     guidetolerance="10"
     inkscape:pageopacity="0"
     inkscape:pageshadow="2"
     inkscape:window-width="1920"
     inkscape:window-height="1016"
     id="namedview60"
     showgrid="false"
     showguides="true"
     inkscape:guide-bbox="true"
     inkscape:zoom="23.164818"
     inkscape:cx="17.594235"
     inkscape:cy="16.974594"
     inkscape:window-x="0"
     inkscape:window-y="27"
     inkscape:window-maximized="1"
     inkscape:current-layer="svg58" />
  <path
     d="m 51.753934,26.945642 c 0,13.88722 -11.19087,25.21627 -25.01487,25.21627 -13.82399,0 -25.0148596,-11.25598 -25.0148596,-25.21627 0,-13.88723 11.1908696,-25.2162813 25.0148596,-25.2162813 13.824,0 25.01487,11.3290513 25.01487,25.2162813 z m -3.65716,43.05038 H 5.8202144 V 206.52936 H 48.096774 Z m 67.583996,0 H 75.159644 V 206.52936 h 40.521126 c 0,0 0,-50.65183 0,-71.62884 0,-19.22285 8.85029,-30.62498 25.7463,-30.62498 15.57942,0 23.03999,10.9636 23.03999,30.62498 0,19.66139 0,71.62884 0,71.62884 h 42.05715 c 0,0 0,-49.84782 0,-86.46625 0,-36.545328 -20.69944,-54.233258 -49.73715,-54.233258 -28.96456,0 -41.17942,22.58501 -41.17942,22.58501 v -18.41884 z"
     id="path56"
     style="stroke-width:0.731167" 
     stroke="#007BB6"/>
</svg>
